<svg xmlns="http://www.w3.org/2000/svg" viewBox="0 0 75.03906 65.46875"><title>arrow</title><g id="Layer_2" data-name="Layer 2"><g id="Layer_1-2" data-name="Layer 1"><path d="M0,32.73437a4.62566,4.62566,0,0,1,1.42578-3.457,4.77551,4.77551,0,0,1,3.457-1.38671H56.28906L36.875,8.35937a4.67816,4.67816,0,0,1-1.48438-3.47656A4.432,4.432,0,0,1,36.875,1.48437,4.48961,4.48961,0,0,1,40.25391,0a5.00028,5.00028,0,0,1,3.53515,1.48437l31.25,31.25-31.25,31.25a5.06963,5.06963,0,0,1-3.51562,1.48438A4.67622,4.67622,0,0,1,36.875,63.98438a4.7831,4.7831,0,0,1-1.48438-3.49609,4.53224,4.53224,0,0,1,1.48438-3.418L56.28906,37.65625H4.88281a4.67574,4.67574,0,0,1-3.457-1.44531A4.77246,4.77246,0,0,1,0,32.73437Z"/></g></g></svg>