<svg xmlns="http://www.w3.org/2000/svg" viewBox="0 0 405.38867 279.64366"><defs><style>.cls-1{fill:#ed1f24;}</style></defs><title>lizing</title><g id="Layer_2" data-name="Layer 2"><g id="Layer_1-2" data-name="Layer 1"><path class="cls-1" d="M89.14014,166.99327,5.582,217.3585,0,208.09678l83.99072-50.61523c.40283-.21191,40.6665-21.07324,75.98145-10.38672l80.18359,24.30859-1.00146,4.83789a15.163,15.163,0,0,1-.73291,2.38574c-2.70947,7.27734-8.45752,11.6543-17.085,13.00977-22.17432,3.52637-56.86426,2.05859-66.96826,1.52246l-.51855-.02637a6.11522,6.11522,0,0,0-4.43848,1.52051,6.01513,6.01513,0,0,0-2.04492,4.17676l-10.793-.6543a16.91465,16.91465,0,0,1,17.93066-15.83594v.001c.11572.00488.26123.01074.43506.02051,9.83643.51953,43.57227,1.95605,64.70947-1.40527a12.10973,12.10973,0,0,0,6.334-2.5498l-69.14551-20.96289C127.05664,148.43565,91.40576,165.85655,89.14014,166.99327Zm308.39746-35.0498c-.10205-.06445-.23-.14355-.38184-.22754-7.561-4.60352-16.41992-4.68262-26.30859-.249-16.65479,7.37207-46.38623,21.31055-88.36865,41.42969-2.25635,1.08105-3.62451,1.7373-3.86377,1.84863l2.23975,4.918,2.147,4.96484c.17285-.0752.19482-.085,4.1499-1.98047,41.88477-20.07227,71.5166-33.96484,88.09619-41.30273a26.20694,26.20694,0,0,1,7.19385-2.18652l-147.458,108.04a47.09246,47.09246,0,0,1-34.88232,8.42773L75.9082,238.13975a17.30473,17.30473,0,0,0-13.48,3.69336L27.0542,271.339l6.92676,8.30469,35.32813-29.46875a6.47888,6.47888,0,0,1,5.05469-1.333l124.15088,17.47949A57.91611,57.91611,0,0,0,241.37451,255.921L405.38867,135.75108ZM179.23828,60.21495v-14.75a10.978,10.978,0,0,1,21.95605,0v14.75a10.978,10.978,0,1,1-21.95605,0Zm9,0a1.978,1.978,0,1,0,3.95605,0v-14.75a1.978,1.978,0,0,0-3.95605,0Zm-81.09277,2.93262a24.70538,24.70538,0,0,1-.001-20.61328l12.89941-28.12109A24.79827,24.79827,0,0,1,146.43262.30968L194.248,7.98546a24.61879,24.61879,0,0,1,20.80273,24.40918V73.28428A24.6182,24.6182,0,0,1,194.249,97.69346l-47.81738,7.67676a24.54684,24.54684,0,0,1-3.89258.31055,24.81,24.81,0,0,1-22.49512-14.41309Zm8.18066-3.752,12.89746,28.12012a15.76327,15.76327,0,0,0,16.78223,8.96777l47.81641-7.67676a15.65463,15.65463,0,0,0,13.22852-15.52246V32.39464a15.6561,15.6561,0,0,0-13.22949-15.52246L145.00684,9.19639a15.76846,15.76846,0,0,0-16.7832,8.96875L115.3252,46.28624A15.70757,15.70757,0,0,0,115.32617,59.39561Zm18.083,7.40625V38.879A10.99057,10.99057,0,0,1,144.38672,27.9005h17.27344A10.99077,10.99077,0,0,1,172.63867,38.879V66.80186a10.99077,10.99077,0,0,1-10.97852,10.97852H144.38672A10.99057,10.99057,0,0,1,133.40918,66.80186Zm9,0a1.9801,1.9801,0,0,0,1.97754,1.97852h17.27344a1.98093,1.98093,0,0,0,1.97852-1.97852V38.879a1.98093,1.98093,0,0,0-1.97852-1.97852H144.38672a1.9801,1.9801,0,0,0-1.97754,1.97852Zm76.58008,7.19531c.02637-1.36328.02637-40.9209,0-42.32129l-.08594-4.584,4.585-.0166h18.8584V46.43956a1.97852,1.97852,0,0,0,3.957,0V27.0753h18.45605V46.43956a1.97754,1.97754,0,0,0,3.95508,0V27.0753h23.50781a10.94343,10.94343,0,0,1,6.06543,1.82715l22.31348,14.78809a10.97974,10.97974,0,0,1-.002,18.30176l-22.3125,14.78613a10.94972,10.94972,0,0,1-6.06445,1.82715H218.87891Zm9.01172-4.3916h64.22168a1.97388,1.97388,0,0,0,1.09375-.33008l22.3125-14.78516a1.98013,1.98013,0,0,0,0-3.29785L293.31543,36.4044a1.96506,1.96506,0,0,0-1.09277-.3291H277.71484V46.43956a10.97754,10.97754,0,0,1-21.95508,0V36.0753h-.45605V46.43956a10.97852,10.97852,0,0,1-21.957,0V36.0753H228.001C228.01172,44.30479,228.01172,61.37511,228.001,69.60557Z"/></g></g></svg>