<svg id="Layer_1" data-name="Layer 1" xmlns="http://www.w3.org/2000/svg" viewBox="0 0 191.1 28.4"><defs><style>.cls-1{fill:#fc0019;}.cls-2{fill:#fff;}</style></defs><title>SOCSRBIJA CRNI-01</title><rect class="cls-1" width="28.3" height="14.5"/><rect y="14.2" width="28.3" height="14.2"/><rect class="cls-2" x="4.9" y="13.3" width="18.4" height="1.7"/><path d="M53.7,25.1a9.31,9.31,0,0,0-3.5-.8c-1.6,0-2.4.3-2.4,1,0,1.8,7.2.3,7.2,4.1,0,1.6-1.5,2.8-4.4,2.8A9.67,9.67,0,0,1,45.9,31l0.6-1.4a7.91,7.91,0,0,0,4.1,1.1c1.8,0,2.7-.5,2.7-1.3,0-1.9-7.2-.5-7.2-4,0-1.5,1.5-2.6,4.1-2.6a8.42,8.42,0,0,1,4.2,1l-0.7,1.3" transform="translate(-9.2 -7.1)"/><path d="M61.2,28.7H58.5V32H56.8V23h5.8a2.86,2.86,0,0,1,.5,5.7l2.7,3.4H63.7l-2.5-3.4m1.3-1.5a1.36,1.36,0,0,0,1.6-1.3,1.3,1.3,0,0,0-1.5-1.4H58.5v2.7h4Z" transform="translate(-9.2 -7.1)"/><path d="M75.5,27.3a2.2,2.2,0,0,1,1.2,2c0,1.5-1.1,2.6-3.1,2.6h-6v-9h5.9c1.7,0,2.9,1,2.9,2.5a2.08,2.08,0,0,1-.9,1.9m-1.8-.6a1,1,0,0,0,1.1-1.1,1.08,1.08,0,0,0-1.2-1.1H69.3v2.2h4.4ZM75,29.3a1.06,1.06,0,0,0-1.2-1.2H69.3v2.3h4.3C74.6,30.5,75,30.1,75,29.3Z" transform="translate(-9.2 -7.1)"/><rect x="69.7" y="15.9" width="1.7" height="9"/><path d="M82.3,30a4.76,4.76,0,0,0,2.3.7c1.2,0,1.7-.5,1.7-1.5V23H88v6.4c0,1.6-1.1,2.8-3.3,2.8a4.88,4.88,0,0,1-2.8-.8L82.3,30" transform="translate(-9.2 -7.1)"/><path d="M92,29.8L91,32H89.2l4.4-9h1.8l4.4,9H98l-1-2.2H92m0.7-1.5h3.5l-1.7-3.6Z" transform="translate(-9.2 -7.1)"/><path d="M53.7,12.6a9.31,9.31,0,0,0-3.5-.8c-1.6,0-2.4.3-2.4,1,0,1.8,7.2.3,7.2,4.1,0,1.6-1.5,2.8-4.4,2.8a9.67,9.67,0,0,1-4.7-1.2l0.6-1.4a7.91,7.91,0,0,0,4.1,1.1c1.8,0,2.7-.5,2.7-1.3,0-1.9-7.2-.5-7.2-4,0-1.5,1.5-2.6,4.1-2.6a8.42,8.42,0,0,1,4.2,1l-0.7,1.3" transform="translate(-9.2 -7.1)"/><path d="M61.7,19.7c-2.9,0-5.2-1.9-5.2-4.8a5,5,0,0,1,5.2-4.8c2.9,0,5.2,1.9,5.2,4.8s-2.3,4.8-5.2,4.8m0-8a3.24,3.24,0,0,0-3.5,3.2,3.18,3.18,0,0,0,3.5,3.2A3.21,3.21,0,1,0,61.7,11.7Z" transform="translate(-9.2 -7.1)"/><path d="M73.8,19.7c-3,0-5.3-1.9-5.3-4.8s2.3-4.8,5.3-4.8A7,7,0,0,1,78,11.4l-0.9,1.3a5.42,5.42,0,0,0-3.3-1.1c-2.2,0-3.6,1.4-3.6,3.2S71.6,18,73.8,18a4.86,4.86,0,0,0,3.3-1.1L78,18.2a5.84,5.84,0,0,1-4.2,1.5" transform="translate(-9.2 -7.1)"/><rect x="70.7" y="3.4" width="1.7" height="9"/><polyline points="74.9 12.4 74.9 3.4 83.1 3.4 83.1 4.8 76.5 4.8 76.5 7 81.6 7 81.6 8.5 76.5 8.5 76.5 10.9 83.4 10.9 83.4 12.4 74.9 12.4"/><polyline points="89.5 4.8 89.5 12.4 87.9 12.4 87.9 4.8 84.2 4.8 84.2 3.4 93.2 3.4 93.2 4.8 89.5 4.8"/><polyline points="94.6 12.4 94.6 3.4 102.8 3.4 102.8 4.8 96.3 4.8 96.3 7 101.4 7 101.4 8.5 96.3 8.5 96.3 10.9 103.1 10.9 103.1 12.4 94.6 12.4"/><path d="M122.7,18.1a7.08,7.08,0,0,0,2.6-.5V15h1.6v3.5a7.5,7.5,0,0,1-4.3,1.2c-3,0-5.3-1.9-5.3-4.8s2.3-4.8,5.3-4.8a7.22,7.22,0,0,1,4.2,1.3l-0.9,1.3a5.42,5.42,0,0,0-3.3-1.1c-2.2,0-3.6,1.4-3.6,3.2a3.37,3.37,0,0,0,3.7,3.3" transform="translate(-9.2 -7.1)"/><polyline points="120 12.4 120 3.4 128.2 3.4 128.2 4.8 121.7 4.8 121.7 7 126.8 7 126.8 8.5 121.7 8.5 121.7 10.9 128.5 10.9 128.5 12.4 120 12.4"/><path d="M141.2,19.5h-1.6v-9h1.7l5.9,6.8h0c-0.1-1.7-.1-3.1-0.1-4.4V10.5h1.6v9H147l-5.8-6.8h0c0.1,1.3.1,3.7,0.1,4.4v2.4" transform="translate(-9.2 -7.1)"/><polyline points="142 12.4 142 3.4 150.2 3.4 150.2 4.8 143.7 4.8 143.7 7 148.7 7 148.7 8.5 143.7 8.5 143.7 10.9 150.5 10.9 150.5 12.4 142 12.4"/><path d="M165.9,16.1h-2.7v3.3h-1.7v-9h5.8a2.86,2.86,0,0,1,.5,5.7l2.7,3.4h-2.1l-2.5-3.4m1.2-1.5a1.36,1.36,0,0,0,1.6-1.3,1.3,1.3,0,0,0-1.5-1.4h-4.1v2.7h4Z" transform="translate(-9.2 -7.1)"/><path d="M174,17.3l-1,2.2h-1.8l4.4-9h1.8l4.4,9H180l-1-2.2h-5m0.7-1.5h3.5l-1.7-3.6Z" transform="translate(-9.2 -7.1)"/><polyline points="173.7 12.4 173.7 3.4 175.4 3.4 175.4 10.9 181.4 10.9 181.4 12.4 173.7 12.4"/><polyline points="182.6 12.4 182.6 3.4 190.8 3.4 190.8 4.8 184.3 4.8 184.3 7 189.3 7 189.3 8.5 184.3 8.5 184.3 10.9 191.1 10.9 191.1 12.4 182.6 12.4"/></svg>
