<svg xmlns="http://www.w3.org/2000/svg" viewBox="0 0 270.37012 350.5293"><defs><style>.cls-1{fill:#ed1f24;}</style></defs><title>osiguranje</title><g id="Layer_2" data-name="Layer 2"><g id="Layer_1-2" data-name="Layer 1"><path class="cls-1" d="M39.48145,80.15918h111.248V93.30176H39.48145ZM197.0293,85.78809,186.49316,74.5918l-9.57129,9.00586,20.71875,22.02148L229.292,67.5127l-10.11035-8.39551Zm-157.54785,67.334h111.248V139.97949H39.48145ZM197.0293,145.6084l-10.53613-11.19629-9.57129,9.00586,20.71875,22.02148L229.292,127.333l-10.11035-8.39551Zm-157.54785,67.334h111.248V199.7998H39.48145Zm157.54785-7.51367-10.53613-11.19629-9.57129,9.00586,20.71875,22.02148L229.292,187.1543l-10.11035-8.39648ZM39.48145,272.7627h111.248V259.62012H39.48145ZM197.0293,265.249l-10.53613-11.19629-9.57129,9.00684,20.71875,22.02051L229.292,246.97461l-10.11035-8.39551ZM270.37012,24.5166V326.01172a24.546,24.546,0,0,1-24.51758,24.51758H24.51758A24.54534,24.54534,0,0,1,0,326.01172V24.5166A24.54451,24.54451,0,0,1,24.51758,0h221.335A24.54513,24.54513,0,0,1,270.37012,24.5166Zm-13.14258,0a11.38734,11.38734,0,0,0-11.375-11.374H24.51758a11.38734,11.38734,0,0,0-11.375,11.374V326.01172a11.38754,11.38754,0,0,0,11.375,11.375h221.335a11.38754,11.38754,0,0,0,11.375-11.375Z"/></g></g></svg>