<svg xmlns="http://www.w3.org/2000/svg" viewBox="0 0 246.93399 329.52827"><title>Asset 1</title><g id="Layer_2" data-name="Layer 2"><g id="Layer_1-2" data-name="Layer 1"><path d="M123.469,0A123.60674,123.60674,0,0,0,0,123.465c0,27.422,10.50143,76.56832,53.527,136.668,23.28884,32.5307,45.0262,55.05355,59.69367,65.99437a17.14148,17.14148,0,0,0,20.49666-.0001c14.66719-10.94086,31.90354-28.51382,59.68868-65.99426,44.01783-59.37735,53.528-109.246,53.528-136.664A123.60674,123.60674,0,0,0,123.469,0Zm0,186.633a64,64,0,1,1,64-64,63.99774,63.99774,0,0,1-64,64Zm0,0"/></g></g></svg>