<svg xmlns="http://www.w3.org/2000/svg" viewBox="0 0 434.75195 228.57031"><defs><style>.cls-1{fill:#ed1f24;}</style></defs><title>reg</title><g id="Layer_2" data-name="Layer 2"><g id="Layer_1-2" data-name="Layer 1"><path class="cls-1" d="M414.33887,0H20.41406A20.43656,20.43656,0,0,0,0,20.41406V208.15625a20.43656,20.43656,0,0,0,20.41406,20.41406h393.9248A20.43635,20.43635,0,0,0,434.752,208.15625V20.41406A20.43635,20.43635,0,0,0,414.33887,0Zm8.7168,208.15625a8.7281,8.7281,0,0,1-8.71777,8.71777H20.41406a8.7281,8.7281,0,0,1-8.71777-8.71777V176.25H423.05566Zm0-43.60156H11.69629V64.0166H423.05566Zm0-112.23437H11.69629V20.41406a8.7281,8.7281,0,0,1,8.71777-8.71777h393.9248a8.72727,8.72727,0,0,1,8.7168,8.71777Z"/><path class="cls-1" d="M74.53025,113.23234c5.64-2.647,8.172-7.942,8.172-16.23v-2.878c0-12.431-5.64-18.532-18.762-18.532h-19.107v80.573h19.913c12.661.001,19.222-6.675,19.222-19.106v-6.562C83.96925,121.98034,81.32224,115.87933,74.53025,113.23234Zm-17.035-26.128h6.101c4.489,0,6.446,2.532,6.446,8.288v4.488c0,6.446-2.878,8.519-7.597,8.519h-4.95Zm13.813,49.611c0,5.985-2.302,7.942-6.561,7.942h-7.252v-24.748h5.64c5.755,0,8.172,2.302,8.172,9.784v7.022Z"/><path class="cls-1" d="M136.66625,102.75834v-7.827c0-12.892-6.446-20.258-18.877-20.258s-18.877,7.367-18.877,20.258v41.898c0,12.892,6.445,20.258,18.877,20.258,12.431,0,18.877-7.367,18.877-20.258v-10.704h-11.971v11.51c0,5.755-2.532,7.826-6.561,7.826s-6.561-2.071-6.561-7.826v-43.51c0-5.755,2.532-7.942,6.561-7.942s6.561,2.187,6.561,7.942v8.633Z"/><rect class="cls-1" x="194.86974" y="110.12333" width="23.021" height="11.50999"/><path class="cls-1" d="M286.37725,75.59434c-1.957,5.41-4.144,10.129-13.929,10.129v8.978h9.785v61.466h12.661v-80.573h-8.517Z"/><path class="cls-1" d="M327.23824,144.65634a8.72462,8.72462,0,0,1-.115-1.727c0-13.237,25.209-22.676,25.209-47.998,0-12.892-6.446-20.258-18.877-20.258s-18.877,7.367-18.877,20.258v7.827h11.97v-8.633c0-5.755,2.532-7.942,6.562-7.942,4.029,0,6.561,1.957,6.561,9.208,0,23.251-25.092,27.165-25.092,50.876v9.899h36.602v-11.51h-23.943Z"/><path class="cls-1" d="M401.59524,97.00334v-2.072c0-12.892-6.446-20.258-18.877-20.258s-18.877,7.367-18.877,20.258v4.374h11.97v-5.18c0-5.755,2.533-7.942,6.562-7.942s6.561,1.957,6.561,9.208v4.488c0,6.446-2.878,8.519-7.597,8.519h-4.948v11.51h4.258c5.755,0,8.288,2.764,8.288,10.244v6.331c0,7.136-2.532,9.093-6.561,9.093s-6.562-2.187-6.562-7.942v-7.482h-11.97v6.676c0,12.892,6.446,20.258,18.877,20.258s18.877-7.367,18.877-20.258v-6.331c0-8.172-2.532-14.158-8.863-16.92C398.83224,111.04634,401.59524,105.63633,401.59524,97.00334Z"/><circle class="cls-1" cx="90.31425" cy="32.14533" r="8.59801"/><circle class="cls-1" cx="90.31425" cy="196.59832" r="8.598"/><circle class="cls-1" cx="344.44323" cy="32.14533" r="8.598"/><circle class="cls-1" cx="344.44323" cy="196.59832" r="8.59799"/></g></g></svg>